<svg xmlns="http://www.w3.org/2000/svg" width="1080" height="1080" style="shape-rendering:geometricPrecision;text-rendering:geometricPrecision;image-rendering:optimizeQuality;fill-rule:evenodd;clip-rule:evenodd"><path style="opacity:1" fill="#131620" d="M-.5.5v-1h16C10.36.488 5.026.821-.5.5z"/><path style="opacity:1" fill="#75fc75" d="M945.5 251.5c-.073 1.527.594 2.527 2 3 53.93 76.932 83.76 162.599 89.5 257 5.49 159.954-50.339 293.787-167.5 401.5-117.268 99.63-252.601 139.3-406 119-76.482-12.09-146.148-40.253-209-84.5-.473-1.406-1.473-2.073-3-2C140.49 865.255 72.656 757.255 48 621.5c-19.435-124.753 3.899-240.753 70-348a418.808 418.808 0 0 1 13.5-19c1.406-.473 2.073-1.473 2-3 16.739-24.75 36.072-47.417 58-68 3.936-2.266 7.269-5.266 10-9 67.733-63.207 147.4-104.374 239-123.5 147.203-26.776 280.87 3.89 401 92 40.37 30.866 75.037 67.033 104 108.5zm-450-123h4v266a576.628 576.628 0 0 1-1 48c-73.333-74-147-147.667-221-221 45.97-38.658 98.304-65.824 157-81.5a587.265 587.265 0 0 1 61-11.5zm87 0c74.336 8.687 141.669 34.854 202 78.5a118.61 118.61 0 0 1 17 14.5c-74 73.333-147.667 147-221 221a576.628 576.628 0 0 1-1-48v-266h3zm-361 149c73.333 74 147 147.667 221 221a576.628 576.628 0 0 1-48 1h-266v-4c8.967-73.901 35.134-140.901 78.5-201a118.61 118.61 0 0 1 14.5-17zm636 0c38.658 45.97 65.824 98.304 81.5 157a587.265 587.265 0 0 1 11.5 61v4h-266a576.628 576.628 0 0 1-48-1c74-73.333 147.667-147 221-221zm-463 302c16.175-.33 32.175.004 48 1-74 73.333-147.667 147-221 221-38.658-45.97-65.824-98.304-81.5-157a550.44 550.44 0 0 1-11.5-62v-3h266zm242 1a576.628 576.628 0 0 1 48-1h266v3c-8.687 74.336-34.854 141.669-78.5 202a118.61 118.61 0 0 1-14.5 17c-73.333-74-147-147.667-221-221zm-138 56a576.628 576.628 0 0 1 1 48v266h-4c-73.901-8.967-140.901-35.134-201-78.5a118.61 118.61 0 0 1-17-14.5c74-73.333 147.667-147 221-221zm82 0c73.333 74 147 147.667 221 221-45.97 38.658-98.304 65.824-157 81.5a550.44 550.44 0 0 1-62 11.5h-3v-266a576.628 576.628 0 0 1 1-48z"/><path style="opacity:1" fill="#6dfd6d" d="M578.5 127.5v267a601.227 601.227 0 0 0 1 49c.607-.124.94-.457 1-1 73.333-74 147-147.667 221-221a31.447 31.447 0 0 0 5-4.5c.667-.667 1.333-.667 2 0l53.5 53.5c.667.667.667 1.333 0 2a31.447 31.447 0 0 0-4.5 5c-73.333 74-147 147.667-221 221-.543.06-.876.393-1 1a601.227 601.227 0 0 0 49 1h273v78h-273a601.227 601.227 0 0 0-49 1c.124.607.457.94 1 1 74 73.333 147.667 147 221 221a31.447 31.447 0 0 0 4.5 5c.667.667.667 1.333 0 2L808.5 862c-.667.667-1.333.667-2 0a31.447 31.447 0 0 0-5-4.5c-74-73.333-147.667-147-221-221-.06-.543-.393-.876-1-1a601.227 601.227 0 0 0-1 49v273h-78v-273a601.227 601.227 0 0 0-1-49c-.607.124-.94.457-1 1-73.333 74-147 147.667-221 221a31.447 31.447 0 0 0-5 4.5c-.667.667-1.333.667-2 0L217 808.5c-.667-.667-.667-1.333 0-2a31.447 31.447 0 0 0 4.5-5c73.333-74 147-147.667 221-221 .543-.06.876-.393 1-1a601.227 601.227 0 0 0-49-1h-273v-78h273c16.347.333 32.68-.001 49-1-.124-.607-.457-.94-1-1-74-73.333-147.667-147-221-221a31.447 31.447 0 0 0-4.5-5c-.667-.667-.667-1.333 0-2l53.5-53.5c.667-.667 1.333-.667 2 0a31.447 31.447 0 0 0 5 4.5c74 73.333 147.667 147 221 221 .06.543.393.876 1 1a601.227 601.227 0 0 0 1-49v-273h78v6z"/><path style="opacity:.494" fill="#377d37" d="M495.5 128.5c1.419-.951 3.085-1.284 5-1v267h-1v-266h-4zm83-1c1.599-.268 2.932.066 4 1h-3v266h-1v-267z"/><path style="opacity:.969" fill="#4a9f4a" d="M201.5 174.5c-2.731 3.734-6.064 6.734-10 9 2.731-3.734 6.064-6.734 10-9z"/><path style="opacity:.588" fill="#397538" d="M133.5 251.5c.073 1.527-.594 2.527-2 3-.073-1.527.594-2.527 2-3zm812 0c1.406.473 2.073 1.473 2 3-1.406-.473-2.073-1.473-2-3z"/><path style="opacity:.741" fill="#51bb51" d="M499.5 394.5h1a601.227 601.227 0 0 1-1 49c-.607-.124-.94-.457-1-1a576.628 576.628 0 0 0 1-48zm79 0h1a576.628 576.628 0 0 0 1 48c-.06.543-.393.876-1 1a601.227 601.227 0 0 1-1-49z"/><path style="opacity:.494" fill="#377d37" d="M128.5 495.5v4h266v1h-267c-.284-1.915.049-3.581 1-5z"/><path style="opacity:.741" fill="#51bb51" d="M442.5 498.5c.543.06.876.393 1 1a601.227 601.227 0 0 1-49 1v-1c16.175.33 32.175-.004 48-1zm194 0a576.628 576.628 0 0 0 48 1v1a601.227 601.227 0 0 1-49-1c.124-.607.457-.94 1-1z"/><path style="opacity:.494" fill="#377d37" d="M950.5 495.5c.951 1.419 1.284 3.085 1 5h-267v-1h266v-4zm-823 83h267v1h-266v3c-.934-1.068-1.268-2.401-1-4z"/><path style="opacity:.741" fill="#51bb51" d="M394.5 579.5v-1c16.347-.333 32.68.001 49 1-.124.607-.457.94-1 1a576.628 576.628 0 0 0-48-1zm290-1v1a576.628 576.628 0 0 0-48 1c-.543-.06-.876-.393-1-1a601.227 601.227 0 0 1 49-1z"/><path style="opacity:.494" fill="#377d37" d="M684.5 579.5v-1h267c.268 1.599-.066 2.932-1 4v-3h-266z"/><path style="opacity:.741" fill="#51bb51" d="M498.5 636.5c.06-.543.393-.876 1-1a601.227 601.227 0 0 1 1 49h-1a576.628 576.628 0 0 0-1-48zm82 0a576.628 576.628 0 0 0-1 48h-1a601.227 601.227 0 0 1 1-49c.607.124.94.457 1 1z"/><path style="opacity:.494" fill="#377d37" d="M499.5 684.5h1v267c-1.915.284-3.581-.049-5-1h4v-266zm79 0h1v266h3c-1.068.934-2.401 1.268-4 1v-267z"/><path style="opacity:.588" fill="#397538" d="M251.5 945.5c1.527-.073 2.527.594 3 2-1.527.073-2.527-.594-3-2z"/></svg>