<svg width="16" height="16" viewBox="0 0 16 16" fill="none" xmlns="http://www.w3.org/2000/svg">
<path fill-rule="evenodd" clip-rule="evenodd" d="M8 16C12.4183 16 16 12.4183 16 8C16 3.58172 12.4183 0 8 0C3.58172 0 0 3.58172 0 8C0 12.4183 3.58172 16 8 16ZM8.00004 14.7469C11.7263 14.7469 14.747 11.7262 14.747 7.99996C14.747 4.2737 11.7263 1.25297 8.00004 1.25297C4.27379 1.25297 1.25306 4.2737 1.25306 7.99996C1.25306 11.7262 4.27379 14.7469 8.00004 14.7469Z" fill="#75FC75"/>
<path fill-rule="evenodd" clip-rule="evenodd" d="M3.56072 2.91891L7.52042 6.842L7.54631 1.26794C7.69622 1.25798 7.84748 1.25293 7.99992 1.25293C8.15246 1.25293 8.30382 1.25799 8.45384 1.26796L8.47973 6.842L12.4393 2.91905C12.6672 3.1184 12.8817 3.33283 13.081 3.5608L9.15807 7.52034L14.7319 7.54622C14.7418 7.69617 14.7469 7.84745 14.7469 7.99992C14.7469 8.15243 14.7418 8.30377 14.7319 8.45376L9.15807 8.47964L13.0809 12.4391C12.8816 12.6671 12.6672 12.8815 12.4392 13.0809L8.47973 9.15798L8.45385 14.7319C8.30382 14.7418 8.15246 14.7469 7.99992 14.7469C7.84748 14.7469 7.69622 14.7419 7.54631 14.7319L7.52042 9.15798L3.5608 13.081C3.33283 12.8817 3.1184 12.6672 2.91906 12.4393L6.84209 8.47964L1.26795 8.45376C1.25799 8.30377 1.25293 8.15243 1.25293 7.99992C1.25293 7.84745 1.25799 7.69617 1.26794 7.54622L6.84209 7.52034L2.91899 3.56063C3.11832 3.33267 3.33276 3.11824 3.56072 2.91891Z" fill="#75FC75"/>
</svg>
